 <svg version="1.0" xmlns="http://www.w3.org/2000/svg" width="900.000000pt" height="480.000000pt" viewBox="0 0 900.000000 480.000000" preserveAspectRatio="xMidYMid meet">  <g transform="translate(0.000000,480.000000) scale(0.100000,-0.100000)" fill="#1a57a8" stroke="none"> <path d="M1844 3368 c-9 -15 -4 -1253 5 -1328 5 -42 3 -113 -6 -199 -7 -74 -12 -139 -10 -144 1 -4 166 -9 367 -9 l365 -1 0 64 0 64 -297 -4 -298 -3 -1 58 c0 56 4 1303 5 1444 l1 65 -63 1 c-34 1 -65 -3 -68 -8z"></path> <path d="M3082 2840 l3 -391 430 0 430 0 3 63 3 63 -338 0 -338 0 1 40 c0 22 2 168 4 325 l3 285 -101 3 -102 3 2 -391z"></path> <path d="M1585 3151 c-3 -2 -5 -285 -5 -628 l0 -623 108 6 c59 3 113 8 120 10 9 3 12 19 10 51 l-3 48 -42 3 c-23 2 -45 8 -50 15 -4 7 -6 257 -3 557 3 300 3 548 0 551 -6 8 -128 17 -135 10z"></path> <path d="M4065 2769 c3 -180 7 -255 16 -266 7 -8 30 -23 50 -34 35 -17 61 -19 298 -19 380 0 361 -18 361 329 l0 242 -92 -3 -93 -3 4 -219 c3 -176 1 -220 -10 -227 -23 -14 -336 -11 -345 3 -5 7 -7 111 -5 230 l3 218 -95 0 -95 0 3 -251z"></path> <path d="M4939 3013 c-3 -50 1 -556 5 -560 8 -9 168 -5 175 4 3 4 4 103 1 218 -3 116 -4 215 -2 220 3 11 334 11 352 0 8 -5 10 -74 9 -221 0 -119 1 -218 5 -221 7 -8 165 -8 173 0 3 4 5 113 4 244 -2 265 -4 270 -69 300 -32 15 -79 18 -344 21 -170 2 -308 0 -309 -5z"></path> <path d="M5905 3004 c-28 -9 -60 -27 -72 -42 -21 -26 -22 -35 -22 -232 0 -187 1 -207 19 -228 39 -47 76 -53 300 -51 114 1 212 -1 218 -5 13 -8 14 -116 2 -136 -7 -12 -54 -14 -264 -11 -141 1 -256 -1 -257 -6 0 -4 -1 -30 -2 -58 l-2 -50 289 -3 c241 -2 298 0 337 13 84 28 79 3 80 436 l2 384 -289 2 c-234 1 -298 -1 -339 -13z m445 -104 c4 -42 1 -332 -3 -337 -8 -7 -323 -4 -343 4 -21 8 -21 318 0 330 16 9 346 11 346 3z"></path> <path d="M6778 3005 c-27 -9 -57 -28 -72 -46 l-26 -31 0 -196 c1 -292 -14 -282 420 -282 l300 0 0 49 c0 29 -5 53 -12 58 -7 4 -123 6 -258 5 -135 -2 -251 1 -258 6 -9 6 -12 27 -10 67 l3 59 271 -3 c150 -1 274 1 276 6 3 4 2 62 -2 129 -7 131 -12 143 -75 174 -44 22 -491 26 -557 5z m442 -111 c6 -6 10 -29 8 -50 l-3 -39 -182 -3 -183 -2 0 44 c0 30 5 48 15 54 23 12 332 9 345 -4z"></path> <path d="M3132 2193 c-11 -15 -23 -39 -27 -53 -4 -14 -11 -30 -15 -35 -5 -6 -10 -33 -12 -60 l-3 -50 42 0 c48 0 48 0 56 -41 5 -25 2 -33 -12 -37 -34 -8 -34 -107 -1 -107 19 0 70 102 70 139 0 22 6 44 15 51 14 11 14 15 1 29 -14 15 -12 20 15 44 19 16 29 33 25 42 -8 22 -28 9 -61 -40 -30 -45 -55 -58 -55 -30 0 20 -20 19 -36 -2 -12 -17 -13 -17 -20 1 -4 10 -2 26 4 35 7 9 17 27 23 41 5 13 14 27 18 30 17 11 21 47 7 59 -11 10 -18 6 -34 -16z"></path> <path d="M3508 2180 c-12 -16 -30 -30 -40 -30 -19 0 -24 -15 -8 -25 16 -10 12 -61 -5 -75 -9 -7 -15 -22 -13 -34 2 -16 11 -21 43 -22 44 -2 75 18 75 47 0 12 -9 19 -27 21 -37 4 -45 42 -11 52 28 7 193 8 200 1 3 -3 -2 -21 -10 -39 -13 -29 -18 -33 -34 -23 -14 10 -22 8 -39 -10 -48 -48 20 -74 87 -33 32 20 33 20 43 2 9 -17 21 -19 95 -18 69 1 88 5 106 21 l22 20 15 -22 c28 -42 123 -20 123 28 0 15 -7 19 -32 20 -70 4 -164 -4 -175 -13 -9 -7 -17 -5 -28 6 -21 20 -27 20 -72 -4 l-37 -20 -23 22 c-24 22 -31 48 -12 48 5 0 15 14 20 30 6 17 15 30 20 30 5 0 9 11 9 25 0 34 -24 32 -50 -5 -21 -30 -22 -30 -115 -30 -96 0 -124 11 -92 35 9 7 14 15 10 18 -12 13 -22 7 -45 -23z"></path> <path d="M3304 2060 c-26 -10 -37 -45 -18 -61 15 -13 94 -3 94 12 0 17 -32 59 -44 58 -6 0 -21 -4 -32 -9z"></path> <path d="M2012 2021 c-9 -5 -12 -25 -10 -57 l3 -49 355 -5 c195 -3 360 -4 366 -2 7 2 11 25 10 60 l-2 57 -354 2 c-195 2 -361 -1 -368 -6z"></path> </g> </svg> 