<?xml version="1.0" standalone="no"?>
<!DOCTYPE svg PUBLIC "-//W3C//DTD SVG 20010904//EN"
 "http://www.w3.org/TR/2001/REC-SVG-20010904/DTD/svg10.dtd">
<svg version="1.0" xmlns="http://www.w3.org/2000/svg"
 width="300.000000pt" height="160.000000pt" viewBox="0 0 300.000000 160.000000"
 preserveAspectRatio="xMidYMid meet">
<metadata>
Created by potrace 1.10, written by Peter Selinger 2001-2011
</metadata>
<g transform="translate(0.000000,160.000000) scale(0.100000,-0.100000)"
fill="#000000" stroke="none">
<path d="M620 1125 c0 -3 -1 -129 -1 -281 l0 -276 121 -1 c118 -2 120 -2 120
21 0 21 -3 22 -100 22 l-100 0 0 260 c0 253 -1 260 -20 260 -11 0 -20 -2 -20
-5z"/>
<path d="M1030 950 l0 -130 145 0 c138 0 145 1 145 20 0 19 -7 20 -112 20
l-113 0 3 110 4 110 -36 0 -36 0 0 -130z"/>
<path d="M530 849 l0 -209 40 0 c33 0 40 3 40 20 0 12 -7 20 -17 20 -17 0 -18
14 -15 184 l3 183 -25 5 -26 5 0 -208z"/>
<path d="M1360 927 c0 -51 5 -88 12 -95 16 -16 200 -16 216 0 7 7 12 44 12 95
l0 83 -30 0 -30 0 0 -75 0 -75 -60 0 -60 0 0 75 0 75 -30 0 -30 0 0 -83z"/>
<path d="M1650 915 l0 -95 30 0 30 0 0 75 0 75 60 0 60 0 0 -75 0 -75 30 0 30
0 0 85 c0 104 -1 105 -139 105 l-101 0 0 -95z"/>
<path d="M1958 999 c-15 -8 -18 -24 -18 -82 0 -44 5 -78 12 -85 7 -7 43 -12
90 -12 77 0 78 0 78 -25 0 -25 -1 -25 -84 -25 -75 0 -84 -2 -89 -20 -5 -19 0
-20 95 -20 143 0 138 -5 138 150 l0 130 -102 0 c-57 0 -111 -5 -120 -11z m162
-86 l0 -58 -60 3 -60 4 0 54 0 54 60 0 60 0 0 -57z"/>
<path d="M2248 999 c-15 -8 -18 -24 -18 -84 0 -93 4 -95 139 -95 94 0 101 1
101 20 0 19 -7 20 -90 20 -83 0 -90 1 -90 20 0 19 7 20 93 20 l93 0 -4 43 c-2
23 -11 48 -20 55 -19 15 -179 16 -204 1z m162 -44 c0 -12 -13 -15 -60 -15 -47
0 -60 3 -60 15 0 12 13 15 60 15 47 0 60 -3 60 -15z"/>
<path d="M1041 722 c-16 -29 -14 -52 5 -52 12 0 14 -7 8 -32 -6 -29 -5 -31 10
-19 9 7 16 22 16 32 0 14 7 19 26 19 15 0 23 4 19 10 -4 6 -16 8 -28 4 -20 -6
-21 -5 -7 12 14 18 14 18 -4 4 -18 -14 -46 -22 -46 -13 0 2 5 13 11 25 6 11 8
22 6 25 -3 2 -10 -4 -16 -15z"/>
<path d="M1170 727 c-24 -19 -24 -57 0 -57 11 0 20 5 20 10 0 6 -4 10 -10 10
-5 0 -10 5 -10 10 0 6 18 10 40 10 31 0 38 -3 34 -15 -4 -8 -10 -13 -14 -10
-5 3 -11 1 -14 -4 -4 -5 29 -9 79 -9 48 0 85 4 85 10 0 5 -26 8 -62 6 -64 -3
-66 -2 -52 37 6 16 5 18 -7 8 -16 -15 -83 -18 -74 -3 8 13 3 12 -15 -3z"/>
<path d="M670 660 c0 -19 7 -20 123 -20 116 0 123 1 123 20 0 19 -7 20 -123
20 -116 0 -123 -1 -123 -20z"/>
</g>
</svg>
